# xmcd CD database file
#
# Track frame offsets:
#	150
#	18310
#	36860
#	51185
#	72042
#	93550
#	115410
#	135640
#	156615
#	172752
#	192975
#	234590
#	260887
#
# Disc length: 3705 seconds
#
# Revision: 0
# Processed by: cddbd v1.5.1PL0 Copyright (c) Steve Scherf et al.
# Submitted via: CDex 1.51
#
DISCID=b70e770d
DTITLE=Plumplanets - Peace and Quiet Disc1
DYEAR=2002
DGENRE=Pop
TTITLE0=FEMINITY
TTITLE1=DOWN TOWN BOY
TTITLE2=FREE RIDE ~Girls Just Wanna Have Fun~
TTITLE3=STRANGE RAINBOW
TTITLE4=LITTLE ROBIN
TTITLE5=BUTTERFLY KNIFE
TTITLE6=COSMIC FEVER
TTITLE7=WORLD WIDE LOVE
TTITLE8=Under The Big Chestnut Tree 〜大きな栗の木の下で〜
TTITLE9=MIDNIGHT COWGIRL
TTITLE10=A JEWEL CASE
TTITLE11=WORKING GIRLS HERO ~Theme of Plum Planets~
TTITLE12=白い色は恋人の色/P.P
EXTD=YEAR: 2002
EXTT0=
EXTT1=
EXTT2=
EXTT3=
EXTT4=
EXTT5=
EXTT6=
EXTT7=
EXTT8=
EXTT9=
EXTT10=
EXTT11=
EXTT12=
PLAYORDER=
